<svg version="1.1" xmlns="http://www.w3.org/2000/svg" xmlns:xlink="http://www.w3.org/1999/xlink" width="1560" height="804"><defs/><g><path fill="none" stroke="#02063B" paint-order="fill stroke markers" d=" M 20 456.71767067424804 L 21 459.3977185470493 L 22 462.06963191862224 L 23 464.7330321209091 L 24 467.3875416923527 L 25 470.0327844313912 L 26 472.6683854497736 L 27 475.29397122569 L 28 477.9091696567073 L 29 480.5136101125047 L 30 483.10692348739934 L 31 485.68874225265733 L 32 488.25870050858003 L 33 490.8164340363602 L 34 493.36158034969947 L 35 495.89377874618094 L 36 498.412670358388 L 37 500.91789820476424 L 38 503.4091072402048 L 39 505.8859444063743 L 40 508.34805868174305 L 41 510.79510113133415 L 42 513.2267249561751 L 43 515.6425855424469 L 44 518.0423405103234 L 45 520.4256497624934 L 46 522.7921755323606 L 47 525.1415824319117 L 48 527.4735374992489 L 49 529.787710245777 L 50 532.0837727030414 L 51 534.3613994692082 L 52 536.6202677551807 L 53 538.8600574303455 L 54 541.0804510679418 L 55 543.2811339900481 L 56 545.461794312179 L 57 547.6221229874849 L 58 549.7618138505519 L 59 551.8805636607915 L 60 553.9780721454163 L 61 556.0540420419954 L 62 558.1081791405829 L 63 560.1401923254135 L 64 562.1497936161605 L 65 564.1366982087483 L 66 566.1006245157156 L 67 568.0412942061225 L 68 569.9584322449957 L 69 571.8517669323073 L 70 573.7210299414805 L 71 575.5659563574172 L 72 577.386284714042 L 73 579.1817570313578 L 74 580.9521188520077 L 75 582.6971192773365 L 76 584.4165110029479 L 77 586.1100503537546 L 78 587.7774973185107 L 79 589.4186155838272 L 80 591.0331725676631 L 81 592.6209394522865 L 82 594.1816912167035 L 83 595.7152066685485 L 84 597.221268475432 L 85 598.6996631957411 L 86 600.1501813088892 L 87 601.572617245009 L 88 602.9667694140869 L 89 604.3324402345322 L 90 605.669436161179 L 91 606.9775677127152 L 92 608.256649498537 L 93 609.5065002450217 L 94 610.7269428212193 L 95 611.9178042639546 L 96 613.0789158023408 L 97 614.2101128816973 L 98 615.3112351868712 L 99 616.382126664957 L 100 617.422635547413 L 101 618.43261437157 L 102 619.41192000153 L 103 620.3604136484516 L 104 621.2779608902199 L 105 622.164431690496 L 106 623.0197004171469 L 107 623.84364586005 L 108 624.6361512482708 L 109 625.3971042666129 L 110 626.1263970715343 L 111 626.8239263064316 L 112 627.4895931162886 L 113 628.1233031616849 L 114 628.724966632167 L 115 629.2944982589759 L 116 629.8318173271309 L 117 630.3368476868701 L 118 630.8095177644414 L 119 631.2497605722459 L 120 631.6575137183328 L 121 632.0327194152399 L 122 632.3753244881848 L 123 632.6852803826002 L 124 632.9625431710153 L 125 633.2070735592815 L 126 633.4188368921407 L 127 633.5978031581369 L 128 633.7439469938702 L 129 633.8572476875901 L 130 633.9376891821319 L 131 633.9852600771914 L 132 633.9999536309415 L 133 633.9817677609869 L 134 633.93070504466 L 135 633.8467727186545 L 136 633.7299826780011 L 137 633.5803514743807 L 138 633.3979003137792 L 139 633.182655053482 L 140 632.9346461984095 L 141 632.6539088967938 L 142 632.3404829351977 L 143 631.9944127328755 L 144 631.6157473354785 L 145 631.2045404081041 L 146 630.7608502276894 L 147 630.2847396747534 L 148 629.7762762244845 L 149 629.2355319371782 L 150 628.6625834480245 L 151 628.0575119562474 L 152 627.4204032135962 L 153 626.7513475121939 L 154 626.0504396717399 L 155 625.3177790260726 L 156 624.553469409091 L 157 623.7576191400399 L 158 622.930341008158 L 159 622.0717522566943 L 160 621.1819745662904 L 161 620.2611340377377 L 162 619.3093611741051 L 163 618.3267908622437 L 164 617.313562353671 L 165 616.269819244836 L 166 615.1957094567674 L 167 614.0913852141117 L 168 612.9570030235582 L 169 611.792723651659 L 170 610.5987121020455 L 171 609.3751375920431 L 172 608.1221735286895 L 173 606.8399974841598 L 174 605.5287911705996 L 175 604.1887404143736 L 176 602.8200351297293 L 177 601.422869291882 L 178 599.9974409095246 L 179 598.5439519967654 L 180 597.0626085444981 L 181 595.5536204912088 L 182 594.0172016932229 L 183 592.4535698943969 L 184 590.8629466952598 L 185 589.2455575216072 L 186 587.6016315925536 L 187 585.931401888047 L 188 584.2351051158511 L 189 582.5129816779977 L 190 580.7652756367177 L 191 578.9922346798509 L 192 577.1941100857447 L 193 575.3711566876412 L 194 573.5236328375629 L 195 571.6518003696974 L 196 569.7559245632913 L 197 567.8362741050529 L 198 565.8931210510744 L 199 563.9267407882757 L 200 561.9374119953752 L 201 559.9254166033961 L 202 557.8910397557099 L 203 555.8345697676259 L 204 553.7562980855303 L 205 551.6565192455814 L 206 549.5355308319695 L 207 547.3936334347402 L 208 545.2311306071957 L 209 543.0483288228746 L 210 540.8455374321179 L 211 538.6230686182269 L 212 536.3812373532206 L 213 534.1203613531973 L 214 531.8407610333068 L 215 529.5427594623415 L 216 527.2266823169493 L 217 524.8928578354801 L 218 522.5416167714649 L 219 520.1732923467429 L 220 517.7882202042354 L 221 515.3867383603788 L 222 512.96918715722 L 223 510.5359092141819 L 224 508.08724937950836 L 225 505.6235546813902 L 226 503.14517427878434 L 227 500.652459411931 L 228 498.14576335257414 L 229 495.6254413538962 L 230 493.0918506001706 L 231 490.54535015614096 L 232 487.98630091613404 L 233 485.41506555291306 L 234 482.83200846627904 L 235 480.23749573142754 L 236 477.63189504706804 L 237 475.0155756833125 L 238 472.3889084293426 L 239 469.7522655408602 L 240 467.1060206873308 L 241 464.45054889902667 L 242 461.78622651387667 L 243 459.1134311241313 L 244 456.4325415228494 L 245 453.7439376502152 L 246 451.04800053969217 L 247 448.3451122640229 L 248 445.6356558810807 L 249 442.92001537958214 L 250 440.1985756246673 L 251 437.4717223033564 L 252 434.7398418698892 L 253 432.00332149095647 L 254 429.2625489908297 L 255 426.51791279639826 L 256 423.76980188212065 L 257 421.01860571489857 L 258 418.264714198881 L 259 415.5085176202063 L 260 412.75040659169014 L 261 409.99077199746716 L 262 407.23000493759446 L 263 404.468496672624 L 264 401.70663856815247 L 265 398.9448220393566 L 266 396.18343849552076 L 267 393.42287928456614 L 268 390.6635356375878 L 269 387.90579861340956 L 270 385.1500590431614 L 271 382.396707474891 L 272 379.64613411821443 L 273 376.89872878901485 L 274 374.15488085419724 L 275 371.41497917650673 L 276 368.6794120594182 L 277 365.9485671921053 L 278 363.2228315944966 L 279 360.50259156242606 L 280 357.7882326128874 L 281 355.0801394293969 L 282 352.3786958074763 L 283 349.68428460025996 L 284 346.99728766423686 L 285 344.3180858051329 L 286 341.64705872394256 L 287 338.9845849631171 L 288 336.3310418529167 L 289 333.6868054579347 L 290 331.05225052380155 L 291 328.42775042407413 L 292 325.81367710732167 L 293 323.21040104441204 L 294 320.6182911760082 L 295 318.0377148602812 L 296 315.46903782084763 L 297 312.91262409493856 L 298 310.36883598180776 L 299 307.83803399138577 L 300 305.320576793188 L 301 302.8168211654837 L 302 300.32712194473226 L 303 297.85183197529534 L 304 295.3913020594315 L 305 292.9458809075796 L 306 290.5159150889389 L 307 288.1017489823532 L 308 285.703724727504 L 309 283.322182176423 L 310 280.95745884532647 L 311 278.60988986678325 L 312 276.279807942218 L 313 273.96754329476073 L 314 271.6734236224471 L 315 269.39777405177625 L 316 267.14091709163347 L 317 264.90317258758375 L 318 262.68485767654255 L 319 260.4862867418308 L 320 258.3077713686198 L 321 256.1496202997729 L 322 254.01213939209038 L 323 251.89563157296195 L 324 249.8003967974363 L 325 247.72673200571037 L 326 245.67493108104688 L 327 243.64528480812444 L 328 241.6380808318272 L 329 239.6536036164792 L 330 237.69213440552977 L 331 235.75395118169504 L 332 233.83932862756208 L 333 231.94853808666002 L 334 230.08184752500506 L 335 228.2395214931238 L 336 226.42182108856065 L 337 224.62900391887476 L 338 222.8613240651313 L 339 221.11903204589282 L 340 219.4023747817152 L 341 217.7115955601537 L 342 216.04693400128386 L 343 214.4086260237422 L 344 212.79690381129126 L 345 211.21199577991428 L 346 209.6541265454436 L 347 208.12351689172772 L 348 206.62038373934186 L 349 205.14494011484481 L 350 203.69739512058914 L 351 202.27795390508643 L 352 200.88681763393362 L 353 199.5241834613033 L 354 198.19024450200257 L 355 196.8851898041048 L 356 195.60920432215715 L 357 194.36246889096861 L 358 193.1451601999818 L 359 191.95745076823218 L 360 190.7995089198984 L 361 189.67149876044715 L 362 188.57358015337576 L 363 187.50590869755618 L 364 186.46863570518323 L 365 185.46190818033028 L 366 184.4858687981157 L 367 183.54065588448262 L 368 182.62640339659518 L 369 181.74324090385412 L 370 180.89129356953347 L 371 180.07068213304265 L 372 179.28152289281485 L 373 178.52392768982517 L 374 177.79800389174022 L 375 177.1038543777018 L 376 176.4415775237468 L 377 175.81126718886503 L 378 175.2130127016975 L 379 174.64689884787649 L 380 174.11300585800973 L 381 173.61140939630985 L 382 173.14218054987123 L 383 172.7053858185953 L 384 172.30108710576616 L 385 171.92934170927754 L 386 171.5902023135124 L 387 171.2837169818764 L 388 171.0099291499863 L 389 170.76887761951423 L 390 170.56059655268857 L 391 170.3851154674525 L 392 170.24245923328064 L 393 170.13264806765443 L 394 170.05569753319702 L 395 170.0116185354676 L 396 170.00041732141588 L 397 170.02209547849674 L 398 170.0766499344453 L 399 170.1640729577123 L 400 170.2843521585598 L 401 170.4374704908172 L 402 170.62340625429673 L 403 170.8421330978693 L 404 171.09362002319867 L 405 171.3778313891347 L 406 171.69472691676455 L 407 172.0442616951209 L 408 172.42638618754702 L 409 172.841046238717 L 410 173.2881830823109 L 411 173.7677333493429 L 412 174.2796290771426 L 413 174.82379771898624 L 414 175.40016215437856 L 415 176.00864069998212 L 416 176.64914712119392 L 417 177.3215906443664 L 418 178.0258759696723 L 419 178.76190328461053 L 420 179.52956827815188 L 421 180.32876215552207 L 422 181.15937165362033 L 423 182.02127905707135 L 424 182.91436221490804 L 425 183.83849455788285 L 426 184.79354511640554 L 427 185.77937853910436 L 428 186.79585511200824 L 429 187.84283077834732 L 430 188.92015715896895 L 431 190.02768157336624 L 432 191.16524706131588 L 433 192.3326924051234 L 434 193.5298521524707 L 435 194.75655663986458 L 436 196.01263201668144 L 437 197.29790026980592 L 438 198.61217924885904 L 439 199.95528269201301 L 440 201.32702025238842 L 441 202.72719752503065 L 442 204.15561607446125 L 443 205.61207346280042 L 444 207.09636327845706 L 445 208.6082751653815 L 446 210.14759485287786 L 447 211.71410418597046 L 448 213.30758115632145 L 449 214.92779993369393 L 450 216.57453089795726 L 451 218.24754067162903 L 452 219.9465921529498 L 453 221.67144454948524 L 454 223.42185341225226 L 455 225.1975706703622 L 456 226.99834466617816 L 457 228.82392019098006 L 458 230.67403852113355 L 459 232.54843745475657 L 460 234.44685134887908 L 461 236.3690111570904 L 462 238.31464446766907 L 463 240.2834755421893 L 464 242.2752253545992 L 465 244.28961163076477 L 466 246.3263488884743 L 467 248.3851484778974 L 468 250.46571862249286 L 469 252.56776446035985 L 470 254.69098808602604 L 471 256.83508859266755 L 472 258.99976211475365 L 473 261.18470187111154 L 474 263.3895982084031 L 475 265.61413864501026 L 476 267.85800791532034 L 477 270.12088801440564 L 478 272.4024582430917 L 479 274.7023952534078 L 480 277.02037309441175 L 481 279.35606325838455 L 482 281.709134727387 L 483 284.0792540201721 L 484 286.4660852394466 L 485 288.869290119475 L 486 291.2885280740189 L 487 293.7234562446057 L 488 296.173729549119 L 489 298.63900073070414 L 490 301.1189204069821 L 491 303.6131371195646 L 492 306.12129738386335 L 493 308.64304573918633 L 494 311.1780247991147 L 495 313.72587530215134 L 496 316.286236162637 L 497 318.85874452192354 L 498 321.4430357997986 L 499 324.03874374615515 L 500 326.64550049289625 L 501 329.2629366060707 L 502 331.8906811382294 L 503 334.5283616809968 L 504 337.1756044178492 L 505 339.8320341770927 L 506 342.49727448503313 L 507 345.17094761933043 L 508 347.8526746625304 L 509 350.5420755557651 L 510 353.2387691526158 L 511 355.9423732731296 L 512 358.65250475798234 L 513 361.3687795227811 L 514 364.0908126124966 L 515 366.8182182560207 L 516 369.55060992083696 L 517 372.28760036780244 L 518 375.02880170602674 L 519 377.77382544784484 L 520 380.52228256387434 L 521 383.2737835381492 L 522 386.0279384233228 L 523 388.7843568959316 L 524 391.54264831171275 L 525 394.3024217609668 L 526 397.063286123958 L 527 399.8248501263443 L 528 402.5867223946298 L 529 405.3485115116306 L 530 408.10982607194694 L 531 410.8702747374343 L 532 413.62946629266406 L 533 416.38700970036746 L 534 419.14251415685396 L 535 421.8955891473966 L 536 424.6458445015766 L 537 427.39289044857827 L 538 430.13633767242897 L 539 432.87579736717316 L 540 435.6108812919744 L 541 438.3412018261379 L 542 441.06637202404454 L 543 443.78600566998955 L 544 446.49971733291756 L 545 449.2071224210466 L 546 451.9078372363732 L 547 454.60147902905044 L 548 457.2876660516322 L 549 459.96601761317487 L 550 462.6361541331895 L 551 465.2976971954368 L 552 467.9502696015566 L 553 470.5934954245253 L 554 473.2270000619328 L 555 475.8504102890717 L 556 478.4633543118315 L 557 481.06546181938984 L 558 483.6563640366931 L 559 486.2356937767207 L 560 488.803085492523 L 561 491.358175329027 L 562 493.90060117460285 L 563 496.4300027123828 L 564 498.9460214713259 L 565 501.44830087702104 L 566 503.93648630222157 L 567 506.41022511710327 L 568 508.86916673924 L 569 511.31296268328845 L 570 513.7412666103764 L 571 516.1537343771867 L 572 518.5500240847285 L 573 520.9297961267939 L 574 523.2927132380856 L 575 525.6384405420157 L 576 527.9666455981644 L 577 530.2769984493948 L 578 532.5691716686144 L 579 534.8428404051784 L 580 537.0976824309287 L 581 539.33337818586 L 582 541.5496108234095 L 583 543.7460662553592 L 584 545.9224331963505 L 585 548.0784032079995 L 586 550.2136707426091 L 587 552.3279331864724 L 588 554.4208909027591 L 589 556.4922472739809 L 590 558.5417087440285 L 591 560.5689848597744 L 592 562.5737883122376 L 593 564.5558349772999 L 594 566.5148439559738 L 595 568.4505376142114 L 596 570.3626416222511 L 597 572.2508849934964 L 598 574.11500012292 L 599 575.9547228249905 L 600 577.7697923711111 L 601 579.5599515265726 L 602 581.3249465870081 L 603 583.0645274143485 L 604 584.7784474722724 L 605 586.4664638611463 L 606 588.1283373524477 L 607 589.7638324226699 L 608 591.3727172867002 L 609 592.9547639306693 L 610 594.5097481442652 L 611 596.0374495525097 L 612 597.5376516469889 L 613 599.0101418165385 L 614 600.4547113773746 L 615 601.8711556026689 L 616 603.259273751563 L 617 604.6188690976178 L 618 605.9497489566936 L 619 607.251724714258 L 620 608.5246118521165 L 621 609.7682299745625 L 622 610.9824028339438 L 623 612.16695835564 L 624 613.32172866245 L 625 614.4465500983835 L 626 615.5412632518542 L 627 616.6057129782724 L 628 617.6397484220325 L 629 618.6432230378916 L 630 619.6159946117394 L 631 620.5579252807518 L 632 621.4688815529299 L 633 622.3487343260184 L 634 623.1973589058022 L 635 624.0146350237782 L 636 624.8004468542001 L 637 625.5546830304936 L 638 626.2772366610388 L 639 626.9680053443197 L 640 627.6268911834366 L 641 628.2538007999799 L 642 628.848645347264 L 643 629.4113405229192 L 644 629.9418065808386 L 645 630.43996834248 L 646 630.9057552075207 L 647 631.3391011638624 L 648 631.7399447969874 L 649 632.1082292986615 L 650 632.4439024749857 L 651 632.7469167537929 L 652 633.0172291913896 L 653 633.2548014786423 L 654 633.459599946407 L 655 633.6315955703004 L 656 633.7707639748131 L 657 633.8770854367649 L 658 633.9505448880993 L 659 633.9911319180193 L 660 633.9988407744627 L 661 633.9736703649173 L 662 633.915624256576 L 663 633.824710675831 L 664 633.7009425071078 L 665 633.5443372910395 L 666 633.3549172219807 L 667 633.1327091448622 L 668 632.8777445513867 L 669 632.5900595755653 L 670 632.2696949885965 L 671 631.9166961930885 L 672 631.5311132166246 L 673 631.1130007046727 L 674 630.6624179128415 L 675 630.1794286984822 L 676 629.6641015116386 L 677 629.1165093853467 L 678 628.5367299252838 L 679 627.9248452987702 L 680 627.2809422231246 L 681 626.6051119533739 L 682 625.8974502693211 L 683 625.1580574619702 L 684 624.387038319314 L 685 623.5845021114822 L 686 622.7505625752563 L 687 621.8853378979501 L 688 620.9889507006607 L 689 620.0615280208892 L 690 619.1032012945383 L 691 618.1141063372835 L 692 617.0943833253262 L 693 616.0441767755269 L 694 614.9636355249247 L 695 613.8529127096433 L 696 612.7121657431884 L 697 611.5415562941394 L 698 610.3412502632362 L 699 609.1114177598691 L 700 607.8522330779691 L 701 606.5638746713078 L 702 605.2465251282055 L 703 603.9003711456559 L 704 602.5256035028656 L 705 601.122417034218 L 706 599.6910106016595 L 707 598.231587066518 L 708 596.7443532607517 L 709 595.2295199576379 L 710 593.6873018419 L 711 592.1179174792841 L 712 590.5215892855819 L 713 588.8985434951106 L 714 587.2490101286497 L 715 585.5732229608429 L 716 583.8714194870671 L 717 582.1438408897727 L 718 580.3907320043053 L 719 578.6123412842046 L 720 576.8089207659959 L 721 574.980726033468 L 722 573.1280161814547 L 723 571.251053779112 L 724 569.3501048327098 L 725 567.4254387479299 L 726 565.4773282916882 L 727 563.5060495534751 L 728 561.5118819062303 L 729 559.4951079667466 L 730 557.45601355562 L 731 555.39488765674 L 732 553.312022376337 L 733 551.2077129015818 L 734 549.0822574587536 L 735 546.9359572709726 L 736 544.7691165155125 L 737 542.5820422806902 L 738 540.3750445223451 L 739 538.1484360199128 L 740 535.9025323320951 L 741 533.6376517521416 L 742 531.3541152627372 L 743 529.0522464905156 L 744 526.7323716601906 L 745 524.3948195483263 L 746 522.0399214367397 L 747 519.6680110655534 L 748 517.2794245858946 L 749 514.8745005122579 L 750 512.453579674528 L 751 510.01700516967924 L 752 507.56512231314866 L 753 505.09827858989996 L 754 502.61682360517466 L 755 500.1211090349484 L 756 497.61148857608754 L 757 495.0883178962257 L 758 492.5519545833565 L 759 490.0027580951547 L 760 487.44108970803563 L 761 484.8673124659516 L 762 482.28179112894395 L 763 479.68489212144505 L 764 477.0769834803517 L 765 474.45843480286277 L 766 471.8296171941026 L 767 469.1909032145242 L 768 466.5426668271125 L 769 463.88528334438234 L 770 461.2191293751921 L 771 458.54458277136655 L 772 455.86202257415033 L 773 453.1718289604865 L 774 450.4743831891403 L 775 447.7700675466633 L 776 445.0592652932185 L 777 442.3423606082606 L 778 439.61973853609237 L 779 436.89178493129435 L 780 434.15888640403966 L 781 431.42143026530573 L 782 428.67980447198073 L 783 425.9343975718849 L 784 423.18559864870184 L 785 420.43379726683975 L 786 417.67938341621874 L 787 414.9227474570042 L 788 412.16428006428066 L 789 409.4043721726882 L 790 406.6434149210153 L 791 403.8817995967688 L 792 401.1199175807175 L 793 398.35816029142757 L 794 395.5969191297871 L 795 392.8365854235394 L 796 390.07755037182 L 797 387.32020498971855 L 798 384.56494005286027 L 799 381.81214604202734 L 800 379.06221308781824 L 801 376.3155309153565 L 802 373.5724887890608 L 803 370.833475457475 L 804 368.0988790981769 L 805 365.36908726276187 L 806 362.64448682192176 L 807 359.9254639106137 L 808 357.21240387333944 L 809 354.5056912095306 L 810 351.8057095190601 L 811 349.11284144787413 L 812 346.4274686337667 L 813 343.74997165228956 L 814 341.0807299628199 L 815 338.4201218547794 L 816 335.76852439402563 L 817 333.1263133694106 L 818 330.4938632395262 L 819 327.8715470796325 L 820 325.2597365287874 L 821 322.6588017371762 L 822 320.06911131365206 L 823 317.4910322734991 L 824 314.924929986415 L 825 312.37116812473346 L 826 309.83010861188075 L 827 307.30211157108636 L 828 304.7875352743428 L 829 302.2867360916338 L 830 299.8000684404256 L 831 297.3278847354416 L 832 294.87053533871455 L 833 292.42836850993547 L 834 290.00173035709486 L 835 287.59096478743464 L 836 285.19641345870605 L 837 282.81841573075235 L 838 280.45730861741106 L 839 278.11342673875504 L 840 275.7871022736662 L 841 273.4786649127616 L 842 271.18844181166764 L 843 268.9167575446542 L 844 266.6639340586378 L 845 264.43029062755187 L 846 262.21614380710173 L 847 260.02180738989864 L 848 257.84759236099194 L 849 255.6938068537921 L 850 253.56075610640514 L 851 251.4487424183706 L 852 249.3580651078219 L 853 247.28902046906376 L 854 245.2419017305837 L 855 243.21699901349234 L 856 241.2145992904098 L 857 239.23498634479265 L 858 237.2784407307183 L 859 235.34523973312193 L 860 233.4356573285016 L 861 231.54996414608746 L 862 229.68842742948976 L 863 227.8513109988238 L 864 226.03887521332 L 865 224.25137693442733 L 866 222.48906948940837 L 867 220.75220263543932 L 868 219.04102252421197 L 869 217.35577166705085 L 870 215.69668890054183 L 871 214.06400935268613 L 872 212.4579644095752 L 873 210.87878168260067 L 874 209.32668497619463 L 875 207.80189425611377 L 876 206.30462561826351 L 877 204.83509125807444 L 878 203.39349944042766 L 879 201.98005447014117 L 880 200.59495666301336 L 881 199.238402317436 L 882 197.91058368657255 L 883 196.61168895111325 L 884 195.3419021926052 L 885 194.10140336736362 L 886 192.89036828096906 L 887 191.7089685633509 L 888 190.55737164446484 L 889 189.43574073056314 L 890 188.34423478106606 L 891 187.28300848603263 L 892 186.2522122442389 L 893 185.25199214186196 L 894 184.28248993177766 L 895 183.34384301346978 L 896 182.43618441355895 L 897 181.55964276694854 L 898 180.71434229859545 L 899 179.90040280590387 L 900 179.1179396417481 L 901 178.3670636981239 L 902 177.6478813904333 L 903 176.96049464240258 L 904 176.30500087163813 L 905 175.68149297581988 L 906 175.09005931953553 L 907 174.53078372175798 L 908 174.0037454439656 L 909 173.50901917890988 L 910 173.04667504002913 L 911 172.61677855151274 L 912 172.21939063901397 L 913 171.8545676210165 L 914 171.52236120085203 L 915 171.22281845937334 L 916 170.95598184828157 L 917 170.7218891841102 L 918 170.52057364286537 L 919 170.35206375532422 L 920 170.21638340299148 L 921 170.11355181471498 L 922 170.04358356396037 L 923 170.00648856674584 L 924 170.0022720802368 L 925 170.03093470200082 L 926 170.0924723699229 L 927 170.18687636278125 L 928 170.31413330148317 L 929 170.47422515096127 L 930 170.6671292227293 L 931 170.8928181780977 L 932 171.15126003204807 L 933 171.44241815776613 L 934 171.76625129183242 L 935 172.12271354007058 L 936 172.51175438405096 L 937 172.93331868825084 L 938 173.38734670786775 L 939 173.87377409728708 L 940 174.39253191920082 L 941 174.9435466543779 L 942 175.526740212083 L 943 176.14202994114416 L 944 176.7893286416658 L 945 177.46854457738735 L 946 178.1795814886837 L 947 178.92233860620757 L 948 179.696710665171 L 949 180.50258792026287 L 950 181.3398561612032 L 951 182.20839672892808 L 952 183.10808653240755 L 953 184.03879806608884 L 954 185.000399427968 L 955 185.99275433828214 L 956 187.01572215882427 L 957 188.06915791287378 L 958 189.15291230574368 L 959 190.26683174593808 L 960 191.4107583669203 L 961 192.58453004948495 L 962 193.78798044473507 L 963 195.0209389976557 L 964 196.28323097128703 L 965 197.5746774714867 L 966 198.8950954722846 L 967 200.2442978418202 L 968 201.62209336886383 L 969 203.02828678991608 L 970 204.46267881687936 L 971 205.92506616530304 L 972 207.4152415831916 L 973 208.9329938803785 L 974 210.47810795845444 L 975 212.05036484125358 L 976 213.64954170588513 L 977 215.2754119143141 L 978 216.927745045479 L 979 218.60630692794945 L 980 220.3108596731111 L 981 222.0411617088821 L 982 223.7969678139466 L 983 225.5780291525103 L 984 227.3840933095636 L 985 229.2149043266565 L 986 231.07020273817128 L 987 232.94972560809654 L 988 234.85320656728916 L 989 236.78037585122524 L 990 238.73096033823245 L 991 240.7046835881954 L 992 242.70126588173548 L 993 244.72042425985072 L 994 246.76187256401974 L 995 248.82532147675403 L 996 250.91047856260317 L 997 253.01704830959656 L 998 255.14473217112663 L 999 257.29322860825664 L 1000 259.46223313245787 L 1001 261.65143834875977 L 1002 263.860533999317 L 1003 266.0892070073771 L 1004 268.33714152165294 L 1005 270.6040189610829 L 1006 272.88951805998363 L 1007 275.1933149135773 L 1008 277.5150830238991 L 1009 279.8544933460663 L 1010 282.21121433491237 L 1011 284.5849119919749 L 1012 286.975249912828 L 1013 289.38188933476135 L 1014 291.8044891847868 L 1015 294.24270612797886 L 1016 296.6961946161301 L 1017 299.1646069367253 L 1018 301.64759326221736 L 1019 304.14480169960785 L 1020 306.65587834031555 L 1021 309.1804673103355 L 1022 311.71821082067106 L 1023 314.2687492180438 L 1024 316.8317210358606 L 1025 319.4067630454448 L 1026 321.9935103075101 L 1027 324.5915962238839 L 1028 327.20065258945885 L 1029 329.8203096443785 L 1030 332.45019612643773 L 1031 335.0899393236999 L 1032 337.7391651273193 L 1033 340.39749808455764 L 1034 343.064561451997 L 1035 345.7399772489297 L 1036 348.423366310929 L 1037 351.11434834358226 L 1038 353.8125419763898 L 1039 356.51756481681014 L 1040 359.2290335044567 L 1041 361.94656376542497 L 1042 364.6697704667557 L 1043 367.3982676710133 L 1044 370.13166869098484 L 1045 372.8695861444788 L 1046 375.61163200922863 L 1047 378.3574176778809 L 1048 381.10655401307235 L 1049 383.8586514025762 L 1050 386.61331981452145 L 1051 389.37016885266644 L 1052 392.1288078117274 L 1053 394.88884573275135 L 1054 397.64989145852013 L 1055 400.4115536889897 L 1056 403.1734410367422 L 1057 405.93516208245734 L 1058 408.696325430382 L 1059 411.45653976380225 L 1060 414.2154139004988 L 1061 416.97255684818873 L 1062 419.7275778599345 L 1063 422.4800864895246 L 1064 425.2296926468049 L 1065 427.97600665296613 L 1066 430.7186392957666 L 1067 433.45720188469534 L 1068 436.19130630605446 L 1069 438.92056507796684 L 1070 441.6445914052873 L 1071 444.3629992344231 L 1072 447.0754033080433 L 1073 449.7814192196794 L 1074 452.4806634682049 L 1075 455.1727535121836 L 1076 457.8573078240864 L 1077 460.5339459443594 L 1078 463.2022885353463 L 1079 465.86195743504567 L 1080 468.51257571070755 L 1081 471.1537677122502 L 1082 473.78515912550097 L 1083 476.4063770252413 L 1084 479.01704992806174 L 1085 481.61680784500606 L 1086 484.2052823340096 L 1087 486.7821065521126 L 1088 489.346915307453 L 1089 491.8993451110184 L 1090 494.43903422816425 L 1091 496.9656227298757 L 1092 499.4787525437807 L 1093 501.97806750489406 L 1094 504.4632134060947 L 1095 506.9338380483257 L 1096 509.3895912905058 L 1097 511.8301250991552 L 1098 514.2550935977163 L 1099 516.6641531155747 L 1100 519.0569622367625 L 1101 521.4331818483463 L 1102 523.7924751884848 L 1103 526.1345078941575 L 1104 528.4589480485491 L 1105 530.7654662280913 L 1106 533.053735549147 L 1107 535.323431714339 L 1108 537.5742330585082 L 1109 539.8058205943024 L 1110 542.0178780573813 L 1111 544.2100919512408 L 1112 546.3821515916393 L 1113 548.5337491506314 L 1114 550.6645797001911 L 1115 552.7743412554282 L 1116 554.8627348173867 L 1117 556.9294644154171 L 1118 558.9742371491247 L 1119 560.9967632298774 L 1120 562.996756021877 L 1121 564.9739320827804 L 1122 566.9280112038705 L 1123 568.8587164497665 L 1124 570.7657741976737 L 1125 572.6489141761595 L 1126 574.5078695034587 L 1127 576.3423767252946 L 1128 578.1521758522183 L 1129 579.9370103964524 L 1130 581.6966274082433 L 1131 583.4307775117078 L 1132 585.1392149401761 L 1133 586.8216975710217 L 1134 588.4779869599761 L 1135 590.1078483749206 L 1136 591.7110508291537 L 1137 593.2873671141269 L 1138 594.8365738316442 L 1139 596.3584514255238 L 1140 597.8527842127125 L 1141 599.3193604138547 L 1142 600.7579721833033 L 1143 602.1684156385786 L 1144 603.5504908892614 L 1145 604.9040020653222 L 1146 606.2287573448801 L 1147 607.5245689813887 L 1148 608.7912533302426 L 1149 610.0286308748053 L 1150 611.2365262518496 L 1151 612.4147682764107 L 1152 613.5631899660466 L 1153 614.6816285645039 L 1154 615.7699255647826 L 1155 616.8279267316016 L 1156 617.8554821232551 L 1157 618.8524461128648 L 1158 619.8186774090169 L 1159 620.7540390757866 L 1160 621.6583985521452 L 1161 622.531627670746 L 1162 623.37360267609 L 1163 624.1842042420623 L 1164 624.9633174888459 L 1165 625.7108319992004 L 1166 626.4266418341124 L 1167 627.1106455478075 L 1168 627.7627462021289 L 1169 628.382851380275 L 1170 628.9708731998967 L 1171 629.5267283255525 L 1172 630.050337980519 L 1173 630.5416279579549 L 1174 631.0005286314185 L 1175 631.426974964734 L 1176 631.82090652121 L 1177 632.1822674722032 L 1178 632.5110066050321 L 1179 632.8070773302337 L 1180 633.0704376881667 L 1181 633.3010503549582 L 1182 633.4988826477932 L 1183 633.663906529546 L 1184 633.7960986127549 L 1185 633.8954401629353 L 1186 633.9619171012357 L 1187 633.9955200064323 L 1188 633.9962441162652 L 1189 633.9640893281121 L 1190 633.8990601990038 L 1191 633.8011659449778 L 1192 633.6704204397724 L 1193 633.5068422128608 L 1194 633.3104544468242 L 1195 633.0812849740672 L 1196 632.8193662728731 L 1197 632.5247354628009 L 1198 632.1974342994245 L 1199 631.8375091684154 L 1200 631.4450110789687 L 1201 631.0199956565739 L 1202 630.5625231351315 L 1203 630.072658348417 L 1204 629.5504707208919 L 1205 628.9960342578653 L 1206 628.4094275350053 L 1207 627.7907336872038 L 1208 627.1400403967931 L 1209 626.4574398811214 L 1210 625.743028879482 L 1211 624.9969086394038 L 1212 624.2191849023022 L 1213 623.409967888494 L 1214 622.569372281575 L 1215 621.6975172121694 L 1216 620.7945262410437 L 1217 619.8605273415977 L 1218 618.8956528817264 L 1219 617.9000396050616 L 1220 616.8738286115918 L 1221 615.8171653376648 L 1222 614.730199535378 L 1223 613.6130852513529 L 1224 612.4659808049055 L 1225 611.289048765607 L 1226 610.0824559302466 L 1227 608.8463732991902 L 1228 607.580976052148 L 1229 606.2864435233461 L 1230 604.9629591761126 L 1231 603.6107105768751 L 1232 602.2298893685805 L 1233 600.8206912435327 L 1234 599.3833159156611 L 1235 597.9179670922147 L 1236 596.424852444894 L 1237 594.9041835804185 L 1238 593.356176010538 L 1239 591.7810491214891 L 1240 590.1790261429043 L 1241 588.5503341161753 L 1242 586.8952038622757 L 1243 585.2138699490497 L 1244 583.5065706579675 L 1245 581.7735479503569 L 1246 580.0150474331112 L 1247 578.2313183238823 L 1248 576.4226134157595 L 1249 574.5891890414458 L 1250 572.7313050369271 L 1251 570.8492247046504 L 1252 568.943214776206 L 1253 567.0135453745278 L 1254 565.060489975609 L 1255 563.0843253697469 L 1256 561.0853316223131 L 1257 559.0637920340647 L 1258 557.0199931009925 L 1259 554.9542244737198 L 1260 552.866778916451 L 1261 550.7579522654826 L 1262 548.628043387275 L 1263 546.4773541360969 L 1264 544.3061893112477 L 1265 542.114856613858 L 1266 539.9036666032847 L 1267 537.6729326530951 L 1268 535.422970906658 L 1269 533.1541002323361 L 1270 530.8666421782991 L 1271 528.5609209269496 L 1272 526.2372632489827 L 1273 523.8959984570729 L 1274 521.5374583592057 L 1275 519.1619772116507 L 1276 516.7698916715927 L 1277 514.361540749418 L 1278 511.93726576067144 L 1279 509.49741027768164 L 1280 507.0423200808729 L 1281 504.5723431097571 L 1282 502.0878294136262 L 1283 499.5891311019409 L 1284 497.0766022944286 L 1285 494.55059907089935 L 1286 492.0114794207785 L 1287 489.45960319237497 L 1288 486.89533204188 L 1289 484.31902938211545 L 1290 481.7310603310273 L 1291 479.131791659944 L 1292 476.52159174159317 L 1293 473.9008304978991 L 1294 471.26987934755317 L 1295 468.629111153379 L 1296 465.97890016948656 L 1297 463.3196219882357 L 1298 460.65165348700293 L 1299 457.9753727747731 L 1300 455.2911591385501 L 1301 452.59939298960666 L 1302 449.9004558095688 L 1303 447.1947300963543 L 1304 444.48259930996323 L 1305 441.76444781813234 L 1306 439.04066084186434 L 1307 436.3116244008306 L 1308 433.57772525866744 L 1309 430.8393508681594 L 1310 428.0968893163324 L 1311 425.3507292694503 L 1312 422.60125991793535 L 1313 419.8488709212085 L 1314 417.0939523524693 L 1315 414.33689464341086 L 1316 411.57808852889053 L 1317 408.817924991551 L 1318 406.0567952064128 L 1319 403.2950904854331 L 1320 400.53320222205156 L 1321 397.7715218357182 L 1322 395.01044071642394 L 1323 392.2503501692289 L 1324 389.49164135880903 L 1325 386.7347052540181 L 1326 383.97993257247776 L 1327 381.2277137252075 L 1328 378.4784387612913 L 1329 375.7324973126028 L 1330 372.9902785385826 L 1331 370.25217107108915 L 1332 367.51856295931816 L 1333 364.7898416148104 L 1334 362.0663937565445 L 1335 359.3486053561331 L 1336 356.6368615831194 L 1337 353.93154675039364 L 1338 351.23304425972384 L 1339 348.5417365474234 L 1340 345.85800503014786 L 1341 343.18223005084326 L 1342 340.5147908248402 L 1343 337.85606538611376 L 1344 335.20643053370486 L 1345 332.56626177832254 L 1346 329.93593328912414 L 1347 327.3158178406887 L 1348 324.7062867601836 L 1349 322.10770987474433 L 1350 319.5204554590583 L 1351 316.9448901831746 L 1352 314.3813790605351 L 1353 311.83028539624934 L 1354 309.2919707356029 L 1355 306.7667948128203 L 1356 304.2551155000797 L 1357 301.7572887567993 L 1358 299.273668579187 L 1359 296.80460695007315 L 1360 294.3504537890239 L 1361 291.91155690275434 L 1362 289.48826193583403 L 1363 287.08091232170284 L 1364 284.6898492339965 L 1365 282.31541153819865 L 1366 279.957935743614 L 1367 277.61775595567786 L 1368 275.2952038286073 L 1369 272.99060851839533 L 1370 270.70429663616693 L 1371 268.43659220188806 L 1372 266.1878165984467 L 1373 263.9582885261029 L 1374 261.7483239573263 L 1375 259.5582360920133 L 1376 257.38833531310104 L 1377 255.2389291425768 L 1378 253.1103221978996 L 1379 251.00281614882635 L 1380 248.91670967466024 L 1381 246.85229842191893 L 1382 244.80987496243853 L 1383 242.78972875190752 L 1384 240.7921460888458 L 1385 238.8174100740276 L 1386 236.86580057036346 L 1387 234.93759416323525 L 1388 233.03306412129874 L 1389 231.15248035775585 L 1390 229.29610939209996 L 1391 227.46421431234776 L 1392 225.65705473775157 L 1393 223.8748867820069 L 1394 222.1179630169534 L 1395 220.3865324367831 L 1396 218.6808404227505 L 1397 217.0011287083977 L 1398 215.34763534529344 L 1399 213.72059466929923 L 1400 212.12023726735674 L 1401 210.54678994480957 L 1402 209.00047569325824 L 1403 207.48151365896018 L 1404 205.99011911177016 L 1405 204.52650341463263 L 1406 203.09087399362556 L 1407 201.6834343085659 L 1408 200.30438382417347 L 1409 198.95391798180282 L 1410 197.63222817174523 L 1411 196.33950170610325 L 1412 195.0759217922466 L 1413 193.8416675068463 L 1414 192.6369137704964 L 1415 191.46183132292222 L 1416 190.31658669878547 L 1417 189.20134220408082 L 1418 188.1162558931344 L 1419 187.06148154620297 L 1420 186.03716864768168 L 1421 185.0434623649176 L 1422 184.08050352763706 L 1423 183.1484286079858 L 1424 182.2473697011897 L 1425 181.37745450683283 L 1426 180.53880631076015 L 1427 179.7315439676043 L 1428 178.95578188394282 L 1429 178.21163000208318 L 1430 177.49919378448192 L 1431 176.81857419879853 L 1432 176.16986770358517 L 1433 175.55316623461783 L 1434 174.96855719186618 L 1435 174.4161234271073 L 1436 173.8959432321833 L 1437 173.40809032790673 L 1438 172.95263385361181 L 1439 172.52963835735633 L 1440 172.1391637867734 L 1441 171.78126548057617 L 1442 171.45599416071462 L 1443 171.16339592518747 L 1444 170.9035122415087 L 1445 170.67637994083125 L 1446 170.48203121272684 L 1447 170.32049360062425 L 1448 170.19178999790546 L 1449 170.0959386446616 L 1450 170.03295312510775 L 1451 170.00284236565764 L 1452 170.0056106336588 L 1453 170.04125753678758 L 1454 170.10977802310495 L 1455 170.21116238177228 L 1456 170.3453962444277 L 1457 170.51246058722248 L 1458 170.7123317335168 L 1459 170.9449813572357 L 1460 171.21037648688295 L 1461 171.50847951021453 L 1462 171.8392481795684 L 1463 172.2026356178523 L 1464 172.5985903251871 L 1465 173.0270561862058 L 1466 173.48797247800573 L 1467 173.9812738787546 L 1468 174.5068904769479 L 1469 175.0647477813174 L 1470 175.65476673138744 L 1471 176.2768637086798 L 1472 176.93095054856437 L 1473 177.61693455275363 L 1474 178.334718502441 L 1475 179.0842006720774 L 1476 179.865274843789 L 1477 180.67783032242997 L 1478 181.52175195127145 L 1479 182.39692012832035 L 1480 183.30321082327032 L 1481 184.24049559507924 L 1482 185.2086416101731 L 1483 186.20751166126965 L 1484 187.23696418682505 L 1485 188.29685329109518 L 1486 189.3870287648139 L 1487 190.5073361064788 L 1488 191.65761654424884 L 1489 192.837707058445 L 1490 194.04744040465513 L 1491 195.28664513743402 L 1492 196.5551456346023 L 1493 197.8527621221356 L 1494 199.17931069964203 L 1495 200.53460336642647 L 1496 201.91844804813186 L 1497 203.33064862396193 L 1498 204.77100495447505 L 1499 206.2393129099499 L 1500 207.73536439931257 L 1501 209.2589473996293 L 1502 210.80984598615385 L 1503 212.38784036293046 L 1504 213.99270689394103 L 1505 215.62421813480108 L 1506 217.2821428649925 L 1507 218.96624612063448 L 1508 220.6762892277801 L 1509 222.41202983624356 L 1510 224.17322195394541 L 1511 225.95961598177703 L 1512 227.77095874897117 L 1513 229.60699354898372 L 1514 231.4674601758743 L 1515 233.3520949611822 L 1516 235.2606308112964 L 1517 237.19279724530506 L 1518 239.14832043333087 L 1519 241.12692323533736 L 1520 243.12832524040815 L 1521 245.15224280648368 L 1522 247.19838910056183 L 1523 249.2664741393471 L 1524 251.35620483035004 L 1525 253.46728501342113 L 1526 255.5994155027255 L 1527 257.7522941291428 L 1528 259.9256157830938 L 1529 262.119072457777 L 1530 264.33235329282263 L 1531 266.56514461834684 L 1532 268.8171299994083 L 1533 271.08799028084957 L 1534 273.37740363253175 L 1535 275.6850455949432 L 1536 278.0105891251823 L 1537 280.35370464330936 L 1538 282.71406007905074 L 1539 285.09132091886346" stroke-linecap="round" stroke-linejoin="round" stroke-miterlimit="10" stroke-width="27"/></g></svg>